<svg width="138" height="40" viewBox="0 0 138 40" fill="none" xmlns="http://www.w3.org/2000/svg"><path d="M40.788 12.97l3.69-.61v3.84h4.42v3.104h-4.42v4.618c0 .777.125 1.43.403 1.881.285.494.813.695 1.66.695a6.05 6.05 0 001.217-.125c.403-.084.813-.167 1.132-.326l.528 2.902c-.444.201-.93.326-1.459.493-.528.125-1.216.201-1.987.201-1.015 0-1.828-.125-2.516-.41-.646-.284-1.174-.652-1.584-1.145a3.735 3.735 0 01-.813-1.799 10.4 10.4 0 01-.243-2.326l-.028-10.992zm19.186 6.536c-.327-.084-.73-.167-1.175-.285a7.805 7.805 0 00-1.417-.125c-.244 0-.529 0-.813.083a6.54 6.54 0 00-.73.125v10.049h-3.69V16.936c.646-.243 1.417-.451 2.356-.653.89-.201 1.904-.326 3.002-.326.201 0 .444 0 .73.042l.854.125c.285.041.57.083.855.166.285.084.528.125.73.202l-.702 3.014zm7.261-3.633c1.098 0 1.987.126 2.717.369s1.3.61 1.744 1.062c.445.493.73 1.02.931 1.674.202.652.285 1.43.285 2.208v7.722c-.528.125-1.258.243-2.189.41-.931.167-2.07.243-3.405.243-.855 0-1.626-.083-2.272-.201a5.993 5.993 0 01-1.786-.736c-.487-.327-.855-.778-1.133-1.348-.285-.527-.403-1.222-.403-2 0-.777.16-1.43.487-1.958.326-.528.73-.938 1.216-1.264.528-.326 1.098-.528 1.744-.694.646-.167 1.341-.202 2.07-.202.487 0 .89 0 1.258.084.369.041.647.083.89.166v-.326c0-.611-.202-1.146-.57-1.514-.368-.368-1.056-.57-1.987-.57-.612 0-1.258.042-1.87.125-.611.084-1.132.202-1.584.41l-.486-2.979c.201-.083.486-.125.813-.201.326-.084.646-.125 1.056-.202a9.642 9.642 0 011.216-.166c.445-.111.855-.111 1.258-.111zm.326 10.862c.369 0 .73 0 1.057-.042.326 0 .611-.042.813-.083v-2.82a5.547 5.547 0 00-.688-.125c-.285-.041-.57-.041-.813-.041-.327 0-.688 0-.973.083-.327.041-.57.125-.813.243a1.255 1.255 0 00-.528.493 1.385 1.385 0 00-.202.736c0 .57.202.98.57 1.222.361.257.89.334 1.577.334zm8.312-3.959c0-.937.16-1.84.486-2.694.327-.861.73-1.549 1.341-2.209a6 6 0 012.113-1.472c.813-.368 1.744-.527 2.8-.527a9.37 9.37 0 011.904.2c.57.126 1.133.286 1.661.529l-.771 2.979a7.565 7.565 0 00-1.133-.326c-.403-.125-.89-.167-1.376-.167-1.098 0-1.904.326-2.432 1.02-.528.695-.813 1.59-.813 2.695 0 1.188.243 2.083.73 2.736.486.653 1.375.98 2.633.98a8.52 8.52 0 001.418-.126c.528-.083.973-.201 1.417-.41l.529 3.021c-.403.202-.973.327-1.62.494a11.12 11.12 0 01-2.147.2c-1.174 0-2.189-.166-3.085-.527-.855-.368-1.585-.861-2.106-1.472-.57-.611-.931-1.347-1.216-2.167a11.793 11.793 0 01-.333-2.757zm13.105-9.806l3.69-.61v3.84h4.42v3.104h-4.42v4.618c0 .777.125 1.43.403 1.881.285.494.813.695 1.66.695a6.05 6.05 0 001.217-.125c.403-.084.813-.167 1.132-.326l.529 2.902c-.445.201-.932.326-1.46.493-.528.125-1.216.201-2.029.201-1.014 0-1.827-.125-2.515-.41-.646-.284-1.175-.652-1.585-1.145a3.734 3.734 0 01-.812-1.799 10.393 10.393 0 01-.244-2.326V12.971h.014zm15.043 3.271h-3.69v13.111h3.69v-13.11zm6.901 13.111c-.855-1.673-1.703-3.597-2.558-5.84a93.303 93.303 0 01-2.473-7.27h3.891c.16.652.368 1.346.57 2.124.201.736.445 1.514.688 2.285.243.778.486 1.549.73 2.243.243.736.486 1.389.729 2 .202-.611.445-1.264.688-2 .243-.736.487-1.472.73-2.243.243-.778.486-1.549.688-2.285.201-.736.403-1.472.57-2.125h3.815a97.399 97.399 0 01-2.474 7.271 74.045 74.045 0 01-2.557 5.84h-3.037zm9.366-6.452c0-1.146.159-2.167.528-3.063.368-.86.813-1.59 1.417-2.166a5.848 5.848 0 011.988-1.306 6.492 6.492 0 012.314-.451c1.827 0 3.328.569 4.378 1.715 1.056 1.146 1.619 2.82 1.619 5.02 0 .202 0 .452-.042.695 0 .285-.042.493-.042.695h-8.436a2.536 2.536 0 001.057 1.84c.611.451 1.459.653 2.515.653.688 0 1.341-.084 1.988-.202.646-.125 1.174-.284 1.584-.493l.486 3.021c-.201.125-.486.201-.813.285-.326.125-.688.201-1.098.284-.403.084-.854.125-1.299.202-.487.041-.931.083-1.376.083-1.174 0-2.189-.166-3.044-.528a5.642 5.642 0 01-2.147-1.43c-.57-.611-1.015-1.306-1.258-2.167a11.695 11.695 0 01-.319-2.687zm8.637-1.43c0-.327-.083-.612-.16-.938-.083-.285-.243-.57-.403-.82a2.024 2.024 0 00-.729-.57c-.285-.166-.646-.2-1.056-.2-.404 0-.772.083-1.057.2a1.997 1.997 0 00-.729.57 2.658 2.658 0 00-.487.82 3.905 3.905 0 00-.243.937h4.864zm-105.82-.696c-.326-.86-1.543-1.062-2.112-1.632-1.216-1.222-.89-3.187-2.96-3.305-2.072.125-1.787 2.083-2.96 3.305-.57.57-1.787.82-2.114 1.632-.402 1.021.286 1.959.814 2.368 1.056.82 2.717 0 3.815-.125h.972c1.133.125 2.801.896 3.816.125.486-.368 1.18-1.305.73-2.368zm1.014-4.533c-.285 1.021-1.099 1.674-1.87 1.473-.771-.202-1.133-1.223-.89-2.209.286-1.02 1.099-1.673 1.863-1.472.737.167 1.14 1.188.896 2.208zm-9.409-.735c.285 1.021-.125 2-.89 2.209-.77.201-1.584-.452-1.868-1.473-.285-1.02.125-2 .89-2.208.777-.243 1.625.451 1.868 1.472zm2.8-2.939c.285 1.021-.125 2-.889 2.209-.73.201-1.584-.452-1.828-1.473-.284-1.02.126-2 .89-2.208.73-.208 1.584.451 1.828 1.472zm3.774.73c-.285 1.021-1.098 1.674-1.87 1.473-.771-.202-1.133-1.223-.89-2.209.286-1.02 1.099-1.673 1.87-1.472.806.208 1.175 1.188.89 2.208z" fill="#0A81D7"/><path d="M18.039 1.825c-8.68 0-15.697 7.062-15.697 15.805 0 8.416 7.338 13.68 7.338 13.68l8.352 6.86 8.352-6.86s7.338-5.271 7.338-13.68c.014-8.743-7.004-15.805-15.683-15.805zm0 26.339c-5.76 0-10.465-4.694-10.465-10.534 0-5.798 4.704-10.534 10.465-10.534 5.76 0 10.464 4.694 10.464 10.534 0 5.798-4.67 10.534-10.464 10.534zm86.352-15.806c0 1.264-.932 2.208-2.189 2.208-1.216 0-2.189-.861-2.189-2.208 0-1.43 1.098-2.209 2.189-2.209 1.174.007 2.189.903 2.189 2.209zm29.565.209c-.931 0-1.703.778-1.703 1.716 0 .937.772 1.715 1.703 1.715a1.72 1.72 0 001.702-1.715c0-.945-.771-1.716-1.702-1.716zm1.376 1.716c0 .777-.612 1.389-1.376 1.389a1.369 1.369 0 01-1.376-1.39c0-.777.612-1.388 1.376-1.388.771 0 1.376.61 1.376 1.389z" fill="#0A81D7"/><path d="M134.025 14.476h-.236v.541h-.299v-1.472h.542c.174 0 .306.035.396.111a.407.407 0 01.139.326.463.463 0 01-.062.25.501.501 0 01-.195.16l.32.597v.014h-.327l-.278-.527zm-.236-.244h.243a.26.26 0 00.174-.055c.042-.035.063-.097.063-.16a.252.252 0 00-.056-.166c-.042-.042-.097-.063-.181-.063h-.243v.444z" fill="#0A81D7"/></svg>